<?xml version="1.0" encoding="iso-8859-1"?>
<!-- Generator: Adobe Illustrator 19.0.0, SVG Export Plug-In . SVG Version: 6.00 Build 0)  -->
<svg version="1.1" id="Capa_1" xmlns="http://www.w3.org/2000/svg" xmlns:xlink="http://www.w3.org/1999/xlink" x="0px" y="0px"
	 viewBox="0 0 508 508" style="enable-background:new 0 0 508 508;" xml:space="preserve">
<g>
	<g>
		<path d="M254,0C113.9,0,0,113.9,0,254s113.9,254,254,254s254-113.9,254-254S394.1,0,254,0z M254,491.6
			C123,491.6,16.4,385,16.4,254S123,16.4,254,16.4S491.6,123,491.6,254S385,491.6,254,491.6z"/>
	</g>
</g>
<g>
	<g>
		<path d="M254,65.5C150.1,65.5,65.5,150.1,65.5,254S150.1,442.5,254,442.5S442.5,357.9,442.5,254S357.9,65.5,254,65.5z
			 M381.1,369.6l-17-17l-11.6,11.6l17,17c-28.7,26.1-66.1,42.6-107.3,44.5v-24.2h-16.4v24.2c-41.3-2-78.7-18.4-107.3-44.5l17-17
			l-11.6-11.6l-17,17c-26.1-28.7-42.6-66.1-44.5-107.3h24.2v-16.4H82.4c2-41.3,18.4-78.7,44.5-107.3l17,17l11.6-11.6l-17-17
			c28.7-26.1,66.1-42.6,107.4-44.5v24.2h16.4V82.4c41.3,2,78.7,18.4,107.3,44.5l-17,17l11.6,11.6l17-17
			c26.1,28.7,42.6,66.1,44.5,107.3h-24.2v16.4h24.1C423.6,303.5,407.2,340.9,381.1,369.6z"/>
	</g>
</g>
<g>
	<g>
		<path d="M262.2,230.9v-91.6h-16.4v91.6c-6.9,2.5-12.4,7.9-14.9,14.9H172v16.4h58.9c3.4,9.5,12.4,16.4,23.1,16.4
			c13.6,0,24.6-11,24.6-24.6C278.6,243.3,271.7,234.3,262.2,230.9z M254,262.2c-4.5,0-8.2-3.7-8.2-8.2s3.7-8.2,8.2-8.2
			s8.2,3.7,8.2,8.2S258.5,262.2,254,262.2z"/>
	</g>
</g>
<g>
</g>
<g>
</g>
<g>
</g>
<g>
</g>
<g>
</g>
<g>
</g>
<g>
</g>
<g>
</g>
<g>
</g>
<g>
</g>
<g>
</g>
<g>
</g>
<g>
</g>
<g>
</g>
<g>
</g>
</svg>
