<?xml version="1.0" encoding="iso-8859-1"?>
<!-- Generator: Adobe Illustrator 19.0.0, SVG Export Plug-In . SVG Version: 6.00 Build 0)  -->
<svg version="1.1" id="Capa_1" xmlns="http://www.w3.org/2000/svg" xmlns:xlink="http://www.w3.org/1999/xlink" x="0px" y="0px"
	 viewBox="0 0 508 508" style="enable-background:new 0 0 508 508;" xml:space="preserve">
<g>
	<g>
		<path d="M491.6,287v-81.8c0-21.5-16.8-39-38-40.6L397.4,0L25.3,127.2l12.8,37.4C16.9,166.1,0,183.6,0,205.2v261.9
			C0,489.6,18.4,508,41,508h409.7c22.6,0,41-18.4,41-40.9v-81.8H508V287H491.6z M435.2,161.1l1.1,3.2h-5.8
			C432,163.1,433.5,162,435.2,161.1z M387.2,20.8l10.3,30.1c-17.5,3.9-33.2-7.5-40.4-19.8L387.2,20.8z M92,121.7l249.2-85.2
			c9.7,19,29.3,31.2,51,31.2c3.6,0,7.1-0.3,10.6-1l26.9,78.5c-8.6,4.4-16,10.9-21.4,19h-104c-0.8-6.2-2.2-12.4-4.3-18.5
			c-10.8-31.6-42.1-63-78.1-51.2c-25,8.2-38.8,37.5-34.7,69.7h-104C91.5,151.9,94.8,136.6,92,121.7z M240.8,124.3l-2.1-6.1
			l-15.5,5.3l2.1,6c-7.9,6.3-11.5,17-8,27c0.9,2.8,2.4,5.4,4.3,7.6h-17.7c-4.1-25.2,5.2-48.4,23.4-54c25.1-7.9,48.8,16.3,57.3,41
			c1.5,4.4,2.6,8.8,3.3,13.2h-17.7c-6.4-7.8-17.2-11.3-27-7.7c-5.9,2.1-9.7-3-10.4-5.2c-1.5-4.2,0.8-8.9,5-10.4
			c4.4-1.5,9,0.8,10.5,5.1l15.5-5.3C260.4,130.8,251,124.5,240.8,124.3z M76.2,127.1c1.8,14.1-3.9,28.3-15.2,37.2h-5.7l-9.2-26.9
			L76.2,127.1z M475.3,467.1h-0.1c0,13.5-11,24.6-24.6,24.6H41c-13.6,0-24.6-11-24.6-24.6V205.2c0-13.5,11-24.5,24.5-24.5h409.8
			c13.5,0,24.5,11,24.5,24.5V287h-24.6v-81.8H41v261.9h409.7v-81.8h24.6V467.1z M393.3,385.2h41v65.5H57.4V221.5h376.9V287h-41
			c-27.1,0-49.2,22-49.2,49.1C344.1,363.2,366.2,385.2,393.3,385.2z M393.3,368.9c-18.1,0-32.8-14.7-32.8-32.7s14.7-32.7,32.8-32.7
			h98.3v65.4H393.3z"/>
	</g>
</g>
<g>
	<g>
		<path d="M401.5,311.5c-13.6,0.1-24.6,11.1-24.6,24.6s11,24.6,24.6,24.6c13.6,0,24.6-11,24.6-24.6
			C426.1,322.6,415.1,311.5,401.5,311.5z M401.5,344.3c-4.5,0-8.2-3.7-8.2-8.2s3.7-8.2,8.2-8.2s8.2,3.7,8.2,8.2
			S406,344.3,401.5,344.3z"/>
	</g>
</g>
<g>
	<g>
		
			<rect x="315.109" y="129.609" transform="matrix(0.9462 -0.3235 0.3235 0.9462 -27.1951 112.0145)" width="16.381" height="16.381"/>
	</g>
</g>
<g>
</g>
<g>
</g>
<g>
</g>
<g>
</g>
<g>
</g>
<g>
</g>
<g>
</g>
<g>
</g>
<g>
</g>
<g>
</g>
<g>
</g>
<g>
</g>
<g>
</g>
<g>
</g>
<g>
</g>
</svg>
